<?xml version="1.0" standalone="no"?><!DOCTYPE svg PUBLIC "-//W3C//DTD SVG 1.1//EN" "http://www.w3.org/Graphics/SVG/1.1/DTD/svg11.dtd"><svg class="icon" width="200px" height="200.00px" viewBox="0 0 1024 1024" version="1.1" xmlns="http://www.w3.org/2000/svg"><path fill="#ffffff" d="M 1007.19 375.48 a 184.027 184.027 0 0 1 -105.691 26.7337 H 122.53 a 185.344 185.344 0 0 1 -106.057 -26.7337 a 29.9885 29.9885 0 0 1 0 -53.5405 L 405.958 26.7724 a 222.464 222.464 0 0 1 211.748 0 l 389.485 295.167 a 29.7691 29.7691 0 0 1 0 53.5405 Z M 950.871 950.857 a 73.1427 73.1427 0 0 1 -73.1427 73.1427 h -224.548 a 150.857 150.857 0 0 0 5.11999 -36.5714 v -182.857 a 146.285 146.285 0 0 0 -292.571 0 v 182.857 a 150.857 150.857 0 0 0 5.11999 36.5714 H 146.301 a 73.1427 73.1427 0 0 1 -73.1427 -73.1427 V 402.287 h 877.712 v 548.57 Z"  /></svg>