<?xml version="1.0" standalone="no"?><!DOCTYPE svg PUBLIC "-//W3C//DTD SVG 1.1//EN" "http://www.w3.org/Graphics/SVG/1.1/DTD/svg11.dtd"><svg class="icon" width="200px" height="200.00px" viewBox="0 0 1024 1024" version="1.1" xmlns="http://www.w3.org/2000/svg"><path fill="#ffffff" d="M 941.268 408.833 s -127.369 -75.2774 -248.415 -61.1252 a 162.599 162.599 0 0 0 -25.8954 25.8954 a 201.743 201.743 0 0 1 54.5008 138.51 a 208.277 208.277 0 0 1 -3.91442 41.252 c 64.4374 13.5499 232.456 56.9097 274.311 141.823 c 0 0 40.6498 89.1284 -231.553 271.3 c 0 0 -246.609 104.786 -404.39 30.7132 a 73.8621 73.8621 0 0 1 41.8542 -71.0618 s 130.983 -71.3629 179.16 -182.472 a 157.209 157.209 0 0 0 -8.73217 -32.8209 a 217.25 217.25 0 0 1 -56.3075 7.82885 a 210.506 210.506 0 0 1 -137.005 -50.2853 c -49.9842 52.6941 -162.298 158.685 -251.727 152.361 c 0 0 -98.1617 -9.93661 -122.853 -331.521 c 0 0 30.7132 -261.363 173.74 -358.019 A 74.7052 74.7052 0 0 1 215.895 201.971 s -2.70999 146.64 70.7607 242.995 a 170.368 170.368 0 0 0 24.3899 7.22663 a 208.609 208.609 0 0 1 142.726 -138.51 c -21.0777 -67.4485 -59.9208 -218.304 -9.03328 -291.775 c 0 0 57.5119 -78.2885 351.696 61.1252 c 0 0 213.788 156.276 227.338 325.8 a 75.2774 75.2774 0 0 1 -82.504 0 Z m -434.802 -21.981 A 123.937 123.937 0 1 0 632.33 510.91 a 124.78 124.78 0 0 0 -125.864 -124.057 Z"  /></svg>