<?xml version="1.0" standalone="no"?><!DOCTYPE svg PUBLIC "-//W3C//DTD SVG 1.1//EN" "http://www.w3.org/Graphics/SVG/1.1/DTD/svg11.dtd"><svg class="icon" width="200px" height="171.52px" viewBox="0 0 1194 1024" version="1.1" xmlns="http://www.w3.org/2000/svg"><path fill="#ffffff" d="M 1036.61 950.03 c -112.619 0 -271.736 -46.0287 -431.706 -46.0287 c -160.823 0 -322.5 44.621 -438.105 44.621 A 414.6 414.6 0 0 1 0 916.543 a 843.619 843.619 0 0 1 326.339 -208.43 a 424.753 424.753 0 0 0 558.829 6.27083 A 843.96 843.96 0 0 1 1194.44 916.543 a 360.381 360.381 0 0 1 -157.837 33.4871 Z m -424.881 -149.007 a 400.565 400.565 0 1 1 390.754 -400.437 a 395.617 395.617 0 0 1 -390.754 400.437 Z M 938.491 414.492 a 261.37 261.37 0 1 0 -261.498 268.195 A 265.081 265.081 0 0 0 938.491 414.492 Z m -466.686 5.84424 a 229.802 229.802 0 1 1 229.504 235.689 a 232.703 232.703 0 0 1 -229.504 -235.689 Z m 274.722 163.17 a 155.235 155.235 0 1 0 -151.438 -155.15 a 153.315 153.315 0 0 0 151.438 155.15 Z m -141.627 331.629 c 159.97 0 319.087 46.0287 431.706 46.0287 a 360.381 360.381 0 0 0 157.837 -33.4871 v 62.8363 a 360.765 360.765 0 0 1 -157.837 33.4444 c -112.619 0 -271.736 -46.0287 -432.133 -46.0287 s -322.073 44.621 -437.678 44.621 A 415.069 415.069 0 0 1 0 990.513 v -62.8363 a 413.789 413.789 0 0 0 166.796 32.1647 c 115.605 0.170635 277.282 -44.7063 438.105 -44.7063 Z"  /></svg>