<?xml version="1.0" standalone="no"?><!DOCTYPE svg PUBLIC "-//W3C//DTD SVG 1.1//EN" "http://www.w3.org/Graphics/SVG/1.1/DTD/svg11.dtd"><svg class="icon" width="200px" height="200.00px" viewBox="0 0 1024 1024" version="1.1" xmlns="http://www.w3.org/2000/svg"><path fill="#ffffff" d="M 770.947 594.354 a 25.0798 25.0798 0 0 0 -24.8604 -19.0109 a 85.3662 85.3662 0 0 1 -58.4951 -148.541 a 21.4604 21.4604 0 0 0 2.55916 -29.2475 a 381.095 381.095 0 0 0 -61.4198 -61.8585 a 21.2776 21.2776 0 0 0 -29.2475 2.37636 a 89.3147 89.3147 0 0 1 -96.5169 21.6432 a 85.8049 85.8049 0 0 1 -52.28 -84.0867 a 21.4604 21.4604 0 0 0 -19.0109 -22.5937 a 382.631 382.631 0 0 0 -87.0114 -0.219356 a 21.2776 21.2776 0 0 0 -19.0109 21.9356 a 86.4265 86.4265 0 0 1 -53.0112 82.5146 a 89.4243 89.4243 0 0 1 -95.7857 -21.9356 a 21.6797 21.6797 0 0 0 -29.2475 -2.44948 a 387.822 387.822 0 0 0 -62.5166 61.8585 a 21.6432 21.6432 0 0 0 2.19356 29.2475 a 85.7318 85.7318 0 0 1 21.9356 96.4803 a 89.7534 89.7534 0 0 1 -84.4522 52.28 a 21.2045 21.2045 0 0 0 -22.3012 18.9743 a 392.831 392.831 0 0 0 0 87.9254 a 25.5916 25.5916 0 0 0 25.226 19.0109 a 84.9275 84.9275 0 0 1 79.6995 52.9746 a 86.134 86.134 0 0 1 -21.5701 95.6029 a 21.3873 21.3873 0 0 0 -2.55916 29.2475 a 379.779 379.779 0 0 0 61.4198 61.8951 a 21.3141 21.3141 0 0 0 29.2475 -2.3398 a 89.1319 89.1319 0 0 1 96.5169 -21.6797 a 85.6953 85.6953 0 0 1 52.28 84.0867 a 21.4604 21.4604 0 0 0 19.0109 22.5937 a 387.786 387.786 0 0 0 87.0114 0.219357 a 21.6432 21.6432 0 0 0 19.0109 -22.155 a 86.3899 86.3899 0 0 1 53.0112 -82.478 a 89.2781 89.2781 0 0 1 95.7857 21.9356 a 21.6797 21.6797 0 0 0 29.2475 2.44948 a 401.678 401.678 0 0 0 62.5166 -61.8585 a 21.7163 21.7163 0 0 0 -2.55916 -29.2475 a 85.4394 85.4394 0 0 1 57.3983 -148.87 h 5.11832 a 21.0582 21.0582 0 0 0 22.3012 -18.9378 a 372.54 372.54 0 0 0 0.365594 -87.7426 Z m -383.508 172.743 a 128.982 128.982 0 1 1 128.689 -128.945 a 129.055 129.055 0 0 1 -128.689 128.945 Z M 1007.49 95.2446 a 13.1248 13.1248 0 0 0 -15.355 -4.20433 A 42.5552 42.5552 0 0 1 937.658 32.9473 a 11.1506 11.1506 0 0 0 -4.38713 -13.9657 a 195.008 195.008 0 0 0 -40.2154 -17.3292 a 10.9678 10.9678 0 0 0 -13.1614 6.54414 a 43.8713 43.8713 0 0 1 -40.581 28.0411 a 43.1401 43.1401 0 0 1 -39.8498 -29.2475 a 10.5291 10.5291 0 0 0 -12.7958 -6.94629 a 187.696 187.696 0 0 0 -40.581 16.0496 a 10.9678 10.9678 0 0 0 -4.75272 13.856 a 42.8476 42.8476 0 0 1 -9.13985 48.1122 a 44.2003 44.2003 0 0 1 -48.2584 7.71404 a 10.5657 10.5657 0 0 0 -13.8926 4.31401 a 183.894 183.894 0 0 0 -17.5485 40.2154 a 10.4926 10.4926 0 0 0 6.58069 13.2345 a 42.8476 42.8476 0 0 1 27.7852 40.7637 a 44.2369 44.2369 0 0 1 -29.2475 39.9229 a 10.5657 10.5657 0 0 0 -6.5807 12.942 a 185.356 185.356 0 0 0 16.0861 40.8369 a 12.7958 12.7958 0 0 0 15.355 4.09465 a 42.6648 42.6648 0 0 1 54.4735 58.2026 a 10.9678 10.9678 0 0 0 4.38713 13.9657 a 196.068 196.068 0 0 0 39.8498 17.3292 a 10.6022 10.6022 0 0 0 13.1614 -6.54414 a 44.8584 44.8584 0 0 1 40.9465 -28.0411 a 43.1401 43.1401 0 0 1 39.8498 29.2475 a 10.456 10.456 0 0 0 12.7958 6.94629 a 189.816 189.816 0 0 0 21.2045 -7.09253 c 6.5807 -2.59572 12.7958 -5.63015 19.3765 -8.99362 a 10.5291 10.5291 0 0 0 4.38713 -13.8195 a 43.5788 43.5788 0 0 1 9.50545 -48.1122 a 44.2003 44.2003 0 0 1 48.2584 -7.71404 a 10.6754 10.6754 0 0 0 13.8926 -4.31401 a 199.834 199.834 0 0 0 17.5485 -40.2154 a 10.4194 10.4194 0 0 0 -6.5807 -13.1614 a 42.6648 42.6648 0 0 1 -1.09678 -79.8092 l 2.19356 -0.804307 a 10.6388 10.6388 0 0 0 6.94629 -13.0152 a 185.612 185.612 0 0 0 -16.0861 -40.7637 Z m -145.872 151.575 a 64.4908 64.4908 0 1 1 35.8282 -84.0867 a 64.4543 64.4543 0 0 1 -35.8282 84.0867 Z"  /></svg>